# xmcd CD database file
#
# Track frame offsets:
#	150
#	17929
#	25387
#	35412
#	47911
#	64679
#	77676
#	92286
#	111474
#	170995
#
# Disc length: 2650 seconds
#
# Revision: 0
# Processed by: cddbd v1.5.2PL0 Copyright (c) Steve Scherf et al.
# Submitted via: jetAudio 7
#
DISCID=820a580a
DTITLE=王苒馨  - 想飛 wanna flying
DYEAR=1900
DGENRE=장르 없음
TTITLE0=Song with wings
TTITLE1=Atease
TTITLE2=Mood
TTITLE3=Hihly praise
TTITLE4=Stimulate
TTITLE5=Swimming under moonlight
TTITLE6=Stillness
TTITLE7=Contemplate
TTITLE8=Flying
TTITLE9=Enjoy scenery
EXTD=
EXTT0=
EXTT1=
EXTT2=
EXTT3=
EXTT4=
EXTT5=
EXTT6=
EXTT7=
EXTT8=
EXTT9=
PLAYORDER=
